<svg id="row-3-icon" class="row-icon" viewBox="0 0 24 24" fill="none" xmlns="http://www.w3.org/2000/svg">
            <path fill-rule="evenodd" clip-rule="evenodd" d="M19.9996 11.9996C19.9996 14.7608 17.7845 16.9992 15.0521 16.9992C12.3196 16.9992 10.1045 14.7608 10.1045 11.9996C10.1045 9.2384 12.3196 7 15.0521 7C17.7845 7 19.9996 9.2384 19.9996 11.9996Z" fill="#F79E1B"/>
            <path fill-rule="evenodd" clip-rule="evenodd" d="M13.8961 11.9996C13.8961 14.7608 11.681 16.9992 8.94854 16.9992C6.21607 16.9992 4.00098 14.7608 4.00098 11.9996C4.00098 9.2384 6.21607 7 8.94854 7C11.681 7 13.8961 9.2384 13.8961 11.9996Z" fill="#EB001B"/>
            <path fill-rule="evenodd" clip-rule="evenodd" d="M11.9999 8.06445C10.8455 8.97972 10.1045 10.402 10.1045 11.9997C10.1045 13.5974 10.8455 15.0208 11.9999 15.9361C13.1543 15.0208 13.8953 13.5974 13.8953 11.9997C13.8953 10.402 13.1543 8.97972 11.9999 8.06445Z" fill="#FF5F00"/>
          </svg>